<svg width="500" height="500" viewBox="0 0 500 500" fill="none" xmlns="http://www.w3.org/2000/svg">
<path d="M222 170C222 182.996 216.838 195.459 207.648 204.648C198.459 213.838 185.996 219 173 219C160.004 219 147.541 213.838 138.352 204.648C129.162 195.459 124 182.996 124 170L173 170H222Z" fill="white"/>
<path d="M195 170C195 175.835 192.682 181.431 188.556 185.556C184.431 189.682 178.835 192 173 192C167.165 192 161.569 189.682 157.444 185.556C153.318 181.431 151 175.835 151 170L173 170H195Z" fill="black"/>
<path d="M375 170C375 182.996 369.838 195.459 360.648 204.648C351.459 213.838 338.996 219 326 219C313.004 219 300.541 213.838 291.352 204.648C282.162 195.459 277 182.996 277 170L326 170H375Z" fill="white"/>
<path d="M348 170C348 175.835 345.682 181.431 341.556 185.556C337.431 189.682 331.835 192 326 192C320.165 192 314.569 189.682 310.444 185.556C306.318 181.431 304 175.835 304 170L326 170H348Z" fill="black"/>
</svg>
