<svg width="500" height="500" viewBox="0 0 500 500" fill="none" xmlns="http://www.w3.org/2000/svg">
<path d="M124 170C124 163.565 125.267 157.193 127.73 151.249C130.192 145.304 133.802 139.902 138.352 135.352C142.902 130.802 148.304 127.192 154.249 124.73C160.193 122.267 166.565 121 173 121C179.435 121 185.807 122.267 191.751 124.73C197.696 127.192 203.098 130.802 207.648 135.352C212.198 139.902 215.808 145.304 218.27 151.249C220.733 157.193 222 163.565 222 170L173 170L124 170Z" fill="white"/>
<path d="M151 170C151 167.111 151.569 164.25 152.675 161.581C153.78 158.912 155.401 156.487 157.444 154.444C159.487 152.401 161.912 150.78 164.581 149.675C167.25 148.569 170.111 148 173 148C175.889 148 178.75 148.569 181.419 149.675C184.088 150.78 186.513 152.401 188.556 154.444C190.599 156.487 192.22 158.912 193.325 161.581C194.431 164.25 195 167.111 195 170L173 170L151 170Z" fill="black"/>
<circle cx="326" cy="170" r="49" fill="white"/>
<circle cx="326" cy="170" r="22" fill="black"/>
</svg>
