<svg width="40" height="40" viewBox="0 0 40 40" fill="none" xmlns="http://www.w3.org/2000/svg">
<g clip-path="url(#clip0_12_132)">
<path d="M20 40C31.0457 40 40 31.0457 40 20C40 8.9543 31.0457 0 20 0C8.9543 0 0 8.9543 0 20C0 31.0457 8.9543 40 20 40Z" fill="#FFE9F0"/>
<path d="M32.3906 18.0919C32.3906 14.6704 29.6169 11.8966 26.1953 11.8966C22.7738 11.8966 20 14.6704 20 18.0919C20 14.6704 17.2263 11.8966 13.8047 11.8966C10.3831 11.8966 7.60938 14.6704 7.60938 18.0919C7.60953 26.128 20.0001 32.5476 20.0001 32.5476C20.0001 32.5476 32.3906 26.5319 32.3906 18.0919Z" fill="#FF80AA"/>
<path d="M20.0001 32.5477C20.0001 32.5477 32.3906 26.5319 32.3906 18.0921C32.3906 14.6705 29.6169 11.8968 26.1953 11.8968C22.7738 11.8968 20 14.6705 20 18.0921V32.5477H20.0001Z" fill="#FF80AA"/>
</g>
<defs>
<clipPath id="clip0_12_132">
<rect width="40" height="40" fill="white"/>
</clipPath>
</defs>
</svg>
